<?xml version="1.0" encoding="UTF-8" standalone="no"?>
<svg
   viewBox="0 0 640 640"
   xmlns="http://www.w3.org/2000/svg">
  <!-- Font Awesome Free 5.15.4 by @fontawesome - https://fontawesome.com License - https://fontawesome.com/license/free (Icons: CC BY 4.0, Fonts: SIL OFL 1.1, Code: MIT License) -->
  <!-- Resized by Ame-chan-angel -->
  <path
     fill="#0000ff"
     d="M 592,0 H 48 A 48,60 0 0 0 0,60 v 400 a 48,60 0 0 0 48,60 h 240 v 40 H 112 a 16,20 0 0 0 -16,20 v 40 a 16,20 0 0 0 16,20 h 416 a 16,20 0 0 0 16,-20 V 580 A 16,20 0 0 0 528,560 H 352 v -40 h 240 a 48,60 0 0 0 48,-60 V 60 A 48,60 0 0 0 592,0 Z M 576,440 H 64 V 80 h 512 z"
     id="path2"
     style="stroke-width:1.11803" />
</svg>
